<?xml version="1.0" encoding="utf-8"?>
<!-- Generator: Adobe Illustrator 24.2.1, SVG Export Plug-In . SVG Version: 6.00 Build 0)  -->
<svg version="1.1" id="Layer_1" xmlns="http://www.w3.org/2000/svg" xmlns:xlink="http://www.w3.org/1999/xlink" x="0px" y="0px"
	 viewBox="0 0 1235.92 1417.32" style="enable-background:new 0 0 1235.92 1417.32;" xml:space="preserve">
<g>
	<path d="M961.7,151.27c0.97-7.88-0.36-14.62-3.71-20.97c-5.87-11.12-14.51-19.51-25.54-25.49c-16.39-8.89-34.16-11.82-52.53-12.17
		c-2.38-0.04-4.77,0.17-7.14,0.05c-4.19-0.21-6.57-2.63-7.07-6.67c-0.48-3.84,2.45-7.64,6.9-7.72c8.9-0.16,17.88-0.13,26.72,0.84
		c17.05,1.86,33.05,7.26,48.92,17.54c-1.02-3.21-1.35-5.09-2.18-6.71c-4.81-9.39-12.51-15.81-21.78-20.4
		c-9.44-4.67-19.49-7.27-30.04-7.77c-2.68-0.13-5.39-0.01-8.02-0.41c-4.76-0.73-7.26-3.6-7.14-7.67c0.12-4,2.89-7.32,7.56-7.16
		c7.69,0.25,15.37,1.34,23.03,2.33c3.48,0.45,6.87,1.52,11.94,2.68c-2.45-3.25-3.71-5.52-5.5-7.22
		c-9.94-9.39-19.99-18.66-30.03-27.94c-1.74-1.61-4.02-2.76-5.37-4.62c-2.11-2.9-2.03-6.25,0.41-9.04c2.1-2.4,4.88-3.55,8-2.04
		c2.12,1.03,4.18,2.3,6.05,3.74c42.99,33.15,71.12,75.78,80.47,129.59c6.35,36.55,1.37,72.41-10.8,107.25
		c-4.3,12.32-9.64,24.27-14.75,37.01c3.56-0.38,5.79-2.87,8.29-4.57c24.82-16.85,51.39-30.05,80.51-37.58
		c64.58-16.7,122.49-2.38,174.6,38.19c0.7,0.55,1.43,1.08,2.04,1.73c3.06,3.25,3.49,7.48,1.12,10.49c-2.37,3-6.51,3.59-10.42,1
		c-4.71-3.13-9.12-6.69-13.76-9.93c-3.63-2.53-7.42-4.85-12.6-8.21c0.92,3.43,1.42,5.23,1.89,7.04c2.09,8.04,4.23,16.07,6.21,24.14
		c0.42,1.69,0.56,3.59,0.27,5.29c-0.61,3.55-2.74,5.94-6.49,6.35c-3.73,0.41-6.45-1.29-7.64-4.78c-0.76-2.21-0.87-4.65-1.24-6.99
		c-2.03-12.87-6.54-24.72-14.64-35.03c-6.44-8.21-14.27-14.24-26.19-15.27c1.36,2.28,2.29,4.18,3.54,5.85
		c13.5,18.08,21.11,38.5,24.15,60.71c0.36,2.63,0.6,5.42,0.08,7.98c-0.71,3.55-3.27,5.58-7.06,5.6c-3.34,0.02-5.89-1.52-6.77-4.73
		c-0.85-3.14-1.09-6.44-1.6-9.67c-4.13-26.18-15.34-48.59-35.18-66.5c-3.75-3.39-7.64-5.28-12.78-5.08
		c-7.11,0.27-14.23,0.07-22.09,1.61c1.57,1.35,3.04,2.84,4.73,4.02c26.11,18.19,42.13,43.19,49.8,73.8c0.57,2.28,1.49,5,0.75,6.95
		c-0.93,2.45-3.02,5.16-5.32,6.23c-3.26,1.51-6.56-0.19-8.14-3.53c-1.13-2.38-1.51-5.12-2.21-7.7
		c-8.43-30.76-25.8-54.35-54.22-69.84c-11.39-6.21-21.68-6.11-33.24,0.66c3.08,1.46,5.68,2.73,8.3,3.94
		c28.74,13.32,48.29,35.13,59.56,64.55c0.95,2.47,1.68,5.12,1.94,7.74c0.37,3.74-1.75,6.31-5.21,7.38c-3.57,1.1-6.53-0.36-8.33-3.52
		c-1.16-2.04-1.69-4.43-2.57-6.64c-13.16-33.07-36.81-54.08-71.56-62.52c-4.97-1.21-9.22-0.93-13.54,1.85
		c-4.18,2.69-8.64,4.96-12.89,9.19c2,0.54,3.98,1.28,6.02,1.58c20.64,3.07,39.86,9.79,56.66,22.45c4.25,3.2,8.26,6.87,11.84,10.8
		c3.97,4.36,3.74,8.81,0.2,11.79c-3.17,2.66-7.25,2.32-11.05-1.58c-18.91-19.46-42.72-27.21-68.98-29.55
		c-5.75-0.51-10.48,0.41-14.63,4.58c-2.7,2.71-5.82,5-9.54,8.14c2.24,0.92,3.63,1.72,5.12,2.06c45.15,10.13,86.56,28.01,121.6,58.91
		c36.2,31.92,57.71,72.14,66.54,119.35c4.24,22.65,5.32,45.5,3.94,68.48c-0.48,7.97-2.51,10.88-7.57,10.87
		c-5.35-0.02-7.36-3.31-7.16-11.83c0.38-16.66,0.89-33.32-2.1-51.01c-1.84,2.06-3.13,3.44-4.35,4.87
		c-5.99,6.99-11.91,14.04-17.98,20.95c-1.35,1.53-3.06,2.95-4.89,3.81c-3.22,1.52-6.49,1.19-8.93-1.69
		c-2.39-2.83-2.49-6.1-0.38-9.06c1.36-1.9,3.34-3.37,5.05-5.02c10.25-9.82,18.35-21.03,23.03-34.6c2.22-6.45,2.68-12.68,0.07-19.14
		c-2.96-7.33-5.61-14.79-8.39-22.19c-0.59,0.09-1.17,0.18-1.76,0.26c-1.04,3.53-2.02,7.07-3.13,10.58
		c-7.51,23.51-19.54,44.64-34.11,64.4c-1.21,1.64-2.76,3.85-4.42,4.12c-2.66,0.43-6.03,0.25-8.22-1.1c-3.09-1.9-3.35-5.52-1.53-8.75
		c1.31-2.32,3.04-4.41,4.58-6.6c12.07-17.11,22.84-34.99,28.66-55.22c2.68-9.33,3.52-19.2,4.86-28.88c0.31-2.2-0.14-4.99-1.31-6.82
		c-5.75-8.97-12.4-17.25-21.6-25.62c0.52,4.38,0.92,7.16,1.17,9.95c3.35,38.31-8.26,71.6-33.71,100.21
		c-1.37,1.54-2.91,3.03-4.63,4.15c-3.13,2.05-6.28,1.66-8.94-0.95c-2.66-2.61-3.1-5.76-1.16-8.94c1.07-1.75,2.62-3.22,4-4.78
		c17.58-19.79,27.82-42.78,29.94-69.21c1.25-15.67-1.6-30.84-6.75-45.6c-0.74-2.13-2.12-4.48-3.9-5.73
		c-7.48-5.28-15.23-10.18-24.13-14.24c1.03,2.96,2.04,5.92,3.1,8.87c11.55,31.99,11.25,63.57-3.43,94.57
		c-2.15,4.55-4.77,8.95-7.71,13.04c-3.07,4.29-7.31,4.94-10.8,2.4c-3.24-2.37-3.87-6.02-1.73-10.35c0.39-0.8,0.97-1.5,1.43-2.26
		c18.45-30.16,19.76-61.68,7.3-94.21c-1.8-4.71-4.59-9.06-6.26-13.8c-4.38-12.46-14.89-15.56-27.12-18.75
		c1.18,2.42,1.7,3.72,2.41,4.9c14.16,23.68,19.52,49.62,19.76,76.87c0.01,1.19,0.05,2.39-0.09,3.57c-0.59,5.02-2.89,7.42-7.12,7.51
		c-4.48,0.1-7.03-2.62-7.58-8.01c-1.19-11.82-1.59-23.79-3.8-35.42c-3.79-19.93-11.87-37.99-26.75-52.46
		c-4.46-4.34-9.31-7.28-16.28-6.71c-1.55,3.49-3.21,7.21-5.1,11.47c2.94,4.18,6.08,8.47,9.05,12.87
		c19.84,29.4,34.74,60.91,41.43,96.03c9.87,51.81-1.92,98.12-35.57,138.58c-8.52,10.25-18.73,19.09-28.24,28.51
		c-1.47,1.45-3.13,2.89-4.98,3.74c-3.2,1.48-6.57,1.33-8.97-1.57c-2.6-3.13-2.53-6.67,0.04-9.8c1.49-1.82,3.5-3.21,5.3-4.77
		c9.62-8.37,18.7-17.25,27.68-28.64c-4.37,0.6-7.14,1.3-9.92,1.3c-7.09,0-14.23,0.19-21.24-0.66c-5.25-0.64-7.48-4.42-6.67-8.76
		c0.75-4.01,3.53-5.92,8.68-5.72c2.97,0.12,5.93,0.56,8.89,0.76c21.1,1.47,45.22-17.29,47.1-39.89c-1.54,0.87-2.74,1.39-3.77,2.15
		c-17.38,12.82-37.23,19.67-58.1,24.02c-1.71,0.36-3.98,0.93-5.21,0.16c-2.32-1.47-5.29-3.62-5.69-5.9
		c-0.39-2.24,1.49-5.63,3.42-7.32c1.81-1.58,4.96-1.7,7.56-2.28c15.21-3.37,29.78-8.4,43.07-16.68
		c7.92-4.93,14.95-10.91,19.86-18.95c3.42-5.61,6.34-11.49,4.74-19.76c-2.45,2.14-4.38,3.69-6.16,5.39
		c-18.36,17.48-40.76,27.58-64.51,35.12c-5.24,1.66-8.97-0.16-10.42-4.12c-1.58-4.34,0.52-7.91,5.98-10.12
		c10.19-4.13,20.69-7.65,30.49-12.57c8.18-4.11,15.86-9.43,23.15-15.01c4.64-3.56,8.52-8.31,12.1-13.01
		c5.27-6.91,7.73-14.55,4.23-23.32c-1.92-4.81-3.16-9.9-5.11-16.18c-15.74,24.46-35.89,42.39-57.82,58.51
		c-2.16,1.58-4.33,3.21-6.69,4.44c-4.12,2.15-7.83,1.16-10.05-2.42c-2.26-3.65-1.3-6.9,1.64-9.59c1.74-1.6,3.83-2.82,5.75-4.23
		c14.92-10.95,29.42-22.48,41.06-36.95c6.1-7.58,10.82-16.27,16.02-24.55c2.05-3.26,1.96-6.64,0-10.13
		c-2.73-4.85-5.15-9.88-8.34-16.08c-1.55,4.2-2.46,6.99-3.6,9.68c-5.01,11.76-9.87,23.59-15.23,35.19
		c-2.41,5.22-6.93,6.75-10.88,4.77c-3.8-1.92-4.59-6.29-2.37-11.74c5.72-14.02,11.59-27.99,16.93-42.16
		c4.01-10.63,3-20.51-6.88-28.13c-5.26,0-10.9-0.5-16.39,0.21c-2.89,0.37-5.95,2.39-8.19,4.47c-19.9,18.38-39.93,36.65-59.37,55.52
		c-49.4,47.94-96.08,98.44-140.38,151.14c-3.04,3.62-6.01,7.29-9.3,11.29c153.32,135.2,281.71,290.97,394.86,461.23
		c2.07-3.59,3.72-6.26,5.19-9.04c30.14-56.88,49.32-117.2,57.12-181.13c10.12-82.99,1.5-163.9-26.57-242.7
		c-0.8-2.24-1.78-4.5-2.01-6.82c-0.36-3.69,1.64-6.82,5.11-7.33c2.51-0.37,5.88,0.74,7.84,2.4c1.83,1.55,2.44,4.64,3.34,7.15
		c14.48,40.53,23.86,82.2,28.39,125.03c3.67,34.77,4.14,69.55,1.02,104.34c-6.89,76.95-28.23,149.72-66.87,216.69
		c-82.56,143.08-204.72,233.51-366.66,266.55c-176.41,35.99-357.59-17.87-486.88-146.41c-79.34-78.88-129.84-173.47-150.69-283.34
		c-18.5-97.49-10.43-193.19,23.22-286.63c0.81-2.24,1.57-4.53,2.7-6.6c2.25-4.1,6-5.51,9.67-3.75c3.72,1.78,5.15,4.82,4.11,8.82
		c-0.52,2.01-1.37,3.93-2.09,5.88c-21.49,58.42-32.29,118.86-32.15,181.02c0.22,96.47,24.73,186.5,74.09,269.58
		c1.35,2.27,2.88,4.43,4.84,7.42c84.19-170.31,186.88-327.2,314.36-467.25C481.16,558.17,319.89,403.48,295,388.48
		c-4.97,6.97-4.82,13.8-0.64,21.26c7.64,13.63,17.43,25.54,27.89,37c1.8,1.98,3.76,3.85,5.34,5.99c2.24,3.02,1.92,6.17-0.45,9.01
		c-2.32,2.79-6.38,3.36-9.7,1.18c-1.71-1.12-3.22-2.66-4.55-4.24c-7.65-9.12-15.22-18.29-22.79-27.48
		c-1.67-2.03-3.18-4.18-5.35-7.05c-3.26,7-3.82,13.74-4.21,20.33c-0.13,2.23,1.79,5.17,3.63,6.83c7.04,6.36,13.98,13,21.79,18.3
		c15.61,10.57,33.01,17.68,50.75,23.89c2.24,0.78,4.56,1.45,6.65,2.54c3.79,1.98,4.59,5.45,3.29,9.16c-1.22,3.5-4.22,4.94-7.83,4.52
		c-2.04-0.24-4.05-0.97-6.01-1.67c-25.65-9.09-50.37-19.95-71.44-37.73c-0.61-0.52-1.5-0.71-3.3-1.53
		c-0.57,8.46-0.95,16.41,0.75,24.1c0.77,3.48,3.56,6.81,6.13,9.55c7.09,7.58,16.26,11.91,25.9,15.26
		c15.91,5.53,32.43,7.42,49.15,8.05c2.08,0.08,4.2,0.04,6.21,0.47c3.65,0.77,5.69,3.3,5.78,6.96c0.09,3.72-2.11,6.21-5.56,7.2
		c-1.95,0.56-4.14,0.48-6.2,0.4c-25.2-0.94-49.8-4.44-72.29-16.96c-0.75-0.42-1.67-0.51-2.97-0.89c-1.12,5.12,1.6,8.68,4.36,12.07
		c6,7.38,13.91,12.02,22.75,15.16c15.98,5.67,32.49,7.03,49.28,5.91c3.26-0.22,6.54-0.71,9.79-0.58c3.68,0.14,6.13,2.31,6.65,6.03
		c0.56,4.02-0.95,7.21-5.1,8.19c-3.45,0.82-7.04,1.23-10.59,1.42c-20.08,1.04-39.82-0.7-60.08-8.53
		c2.59,7.26,6.41,12.41,11.44,16.17c15.62,11.69,32.55,15.6,51.06,6.97c0.54-0.25,1.05-0.56,1.61-0.78
		c5.18-2.04,8.94-1.16,10.91,2.53c2.1,3.93,0.56,8.33-4.57,10.94c-4.21,2.14-8.79,3.57-13.28,5.08c-2.24,0.75-4.63,1.09-6.99,1.43
		c-2.33,0.34-4.69,0.44-8.27,0.76c2.1,1.96,3.28,3.59,4.87,4.46c9.64,5.3,19.37,10.44,29.09,15.59c2.1,1.11,4.46,1.8,6.41,3.12
		c3.28,2.23,4.81,5.36,2.86,9.24c-1.82,3.62-4.81,5.13-8.87,4.07c-0.57-0.15-1.12-0.41-1.67-0.64
		c-39.81-16.71-72.93-41.26-93.84-80.1c-12.06-22.41-18.04-46.5-19.47-71.79c-1.95-34.65,3.79-68.21,14.8-100.97
		c0.94-2.81,1.98-5.59,3.15-8.87c-2.39-2.8-4.84-5.68-7.45-8.75c-7.4,1.36-12.31,5.35-15.76,11.84
		c-9.44,17.72-12.32,36.65-9.89,56.26c1.42,11.46,4.28,22.77,6.98,34.03c1.04,4.32,0.8,7.7-3.02,10.11
		c-3.32,2.1-8.13,0.87-10.01-2.8c-1.61-3.14-2.67-6.63-3.57-10.06c-6.54-24.84-8.52-49.81-1.86-74.99c0.29-1.1,0.36-2.25,0.68-4.38
		c-10.35,5.65-17.6,11.48-19.81,23.71c-6.54,36.08-1.03,68.7,23.71,96.85c2.93,3.34,6.47,6.14,9.65,9.27
		c3.86,3.78,4.45,7.7,1.75,10.97c-2.7,3.27-7.05,3.82-11.13,0.51c-4.6-3.74-9.02-7.83-12.88-12.31
		c-20.6-23.89-29.68-51.83-28.52-83.21c0.18-4.91,0.59-9.81,0.07-15.05c-8.1,6.47-15.5,13.4-20.46,22.03
		c-2.27,3.96-1.91,9.82-1.67,14.77c2.06,41.18,21.69,72.15,55.66,94.61c1.98,1.31,4.18,2.36,5.98,3.88
		c2.89,2.44,3.15,5.78,1.62,8.95c-1.64,3.39-4.87,4.47-8.33,3.48c-2.52-0.73-4.93-2.09-7.14-3.55
		c-32.92-21.63-54.56-50.9-61.07-90.39c-0.19-1.17-0.44-2.34-0.83-3.45c-0.17-0.5-0.76-0.85-1.55-1.68
		c-8.15,13.75-11.05,28.09-7.08,43.57c3.86,15.05,11.62,28.17,21.99,39.4c9.86,10.68,20.8,20.39,31.56,30.2
		c5.84,5.32,7.41,8.5,4.58,12.55c-3.13,4.48-7.31,4.42-13.86-0.62c-15.42-11.86-29.44-25.21-40.67-41.15
		c-4.95-7.02-9.45-14.5-13.06-22.29c-9.52-20.53-9.94-41.25-0.36-62.13c11.12-24.24,27.47-44.47,46.64-62.64
		c18.92-17.92,39.93-32.95,63.04-45.01c1.56-0.81,3.08-1.69,5.63-3.1c-4.36-3.55-8.06-6.91-12.14-9.69
		c-1.42-0.96-4.03-1.13-5.74-0.56c-27.33,9.1-50.76,23.38-65.05,49.62c-0.84,1.55-1.57,3.78-2.91,4.32
		c-2.53,1.01-5.81,1.99-8.11,1.15c-1.85-0.68-3.89-4.14-3.75-6.21c0.23-3.37,1.75-6.88,3.49-9.88
		c11.23-19.44,27.85-33.08,47.47-43.38c4.11-2.16,8.32-4.15,12.38-7.74c-7.21-1.5-14.37-3.42-21.65-4.29
		c-2.56-0.31-5.62,1.64-8.13,3.09c-31.33,18.08-47.58,45.63-50.69,81.33c-0.15,1.78-0.06,3.59-0.33,5.34
		c-0.64,4.14-3.18,6.34-7.36,6.22c-4.19-0.12-6.82-2.55-6.99-6.64c-0.19-4.73-0.04-9.55,0.62-14.24
		c4.17-29.48,17.09-54.25,40.19-73.38c1.31-1.09,3.17-1.53,4.01-3.23c-10.44-2.91-19.11-3.22-27.29,4.1
		c-25.72,23.03-36.92,51.87-36.1,85.9c0.06,2.68,0.42,5.39,0.1,8.02c-0.44,3.66-2.86,5.88-6.52,6.26c-3.71,0.38-6.56-1.42-7.47-4.98
		c-0.88-3.42-1.32-7.04-1.34-10.58c-0.17-30.15,7.9-57.59,27.16-81.27c0.91-1.12,1.74-2.29,4.07-5.37c-5.4,1-8.85,1.79-12.35,2.25
		c-13.84,1.8-21.84,10.03-27.13,22.55c-8.32,19.68-11.71,39.85-8.81,61.04c0.4,2.95,1.01,5.87,1.36,8.82
		c0.62,5.24-1.55,8.76-5.73,9.49c-4.19,0.74-7.71-1.68-8.88-6.81c-1.06-4.62-1.79-9.37-2.14-14.1c-1.48-19.83,0.38-39.24,7.72-57.91
		c0.41-1.03,0.59-2.15,1.15-4.23c-7.61,3.11-12.89,7.3-16.69,13.56c-8.62,14.2-9.98,29.66-8.35,45.69c0.18,1.77,0.64,3.52,0.81,5.29
		c0.49,5.21-1.77,8.7-5.99,9.39c-4.07,0.66-7.77-1.97-8.72-7.04c-0.99-5.25-1.52-10.61-1.81-15.95c-0.3-5.6-0.07-11.22-0.07-17.11
		c-5.38,3.22-8.52,9.07-12.65,13.92c-2.31,2.71-4.19,5.79-6.45,8.56c-3.51,4.31-8.18,5.22-11.56,2.44
		c-3.1-2.54-3.29-6.61-0.51-11.28c0.3-0.51,0.66-0.99,1.01-1.48c30.04-42.08,69.09-71.06,120.31-81.93
		c35.64-7.57,71.05-4.94,106.13,3.92c8.59,2.17,17.07,4.81,26.61,6.2c-1.98-2.3-3.94-4.62-5.94-6.9
		c-23.41-26.71-42.38-56.12-52.6-90.38c-19.63-65.83-6-125.8,33.16-180.97c0.34-0.49,0.69-0.98,1.07-1.43
		c4.11-4.89,8.57-5.97,12.2-2.95c3.48,2.91,3.65,6.84-0.14,11.85c-9.38,12.41-17.18,25.73-23.45,39.95
		c-0.58,1.32-1.03,2.71-2.12,5.61c2.8-1.36,4.42-2.18,6.06-2.94c7.26-3.4,14.48-6.89,21.82-10.11c2.12-0.93,4.58-1.35,6.91-1.45
		c3.33-0.15,5.73,1.67,6.64,4.89c0.99,3.49,0.1,6.63-3.18,8.48c-2.04,1.16-4.39,1.79-6.62,2.58c-11.37,4.02-21.67,9.81-30.3,18.35
		c-8.3,8.22-13.55,17.93-14.53,30.86c1.87-1.42,3.26-2.16,4.25-3.26c16.11-17.86,36.68-28.1,59.37-34.58
		c7.36-2.1,11.43-0.57,12.8,4.03c1.51,5.06-1.13,8.11-9.08,10.45c-13.81,4.05-26.88,9.67-38.56,18.2
		c-12.86,9.38-22.6,21.08-26.84,36.77c-2.31,8.55-1.97,16.95,1.54,25.93c0.98-1.53,1.72-2.42,2.19-3.44
		c14.23-31.23,40.34-49.14,70.34-62.68c1.08-0.49,2.23-0.88,3.38-1.09c3.97-0.73,7.22,0.44,8.73,4.36c1.48,3.84,0.21,7.06-3.34,9.15
		c-1.78,1.05-3.78,1.74-5.67,2.6c-15.02,6.84-28.89,15.45-40.74,27c-13.41,13.07-22.66,28.28-23.66,47.58
		c-0.5,9.65,0.62,14.93,5.24,21.57c0.51-1.67,0.94-2.89,1.26-4.14c4.04-16.24,12.17-30.28,22.96-42.9
		c9.93-11.63,21.39-21.53,33.96-30.17c1.23-0.84,2.45-1.7,3.75-2.42c5.15-2.86,9.48-2.21,11.72,1.68c2.03,3.54,0.81,7.63-3.32,10.73
		c-1.66,1.25-3.48,2.29-5.18,3.49c-14.94,10.59-28.26,22.82-38.3,38.3c-7.59,11.7-12.33,24.31-12.36,38.54
		c-0.02,11.26,2.86,21.14,12.01,29.13c2.14-2.93,0.94-6.17,0.85-9.1c-0.77-25.37,7.73-47.28,24.51-66.1
		c1.96-2.2,4.19-4.25,6.57-5.99c3.06-2.24,6.28-1.72,8.94,0.84c2.99,2.88,3.2,6.3,0.88,9.68c-0.99,1.45-2.44,2.6-3.66,3.89
		c-25.05,26.54-28.79,60.77-12.84,94.39c3.58,7.54,5.75,8.03,13.32,4.28c0-9.28-0.24-18.78,0.04-28.27
		c1.28-43.9,12.42-84.63,39.22-120.2c20.54-27.26,47.19-46.76,77.88-61.15c32.74-15.35,67.37-23.1,103.21-26.09
		c0.89-0.07,1.79-0.15,2.68-0.13c5.24,0.15,8.57,2.65,9.05,6.77c0.51,4.31-2.76,7.68-8.44,8.38c-11.21,1.38-22.47,2.45-33.65,4.03
		c-6.46,0.92-12.81,2.6-20.66,4.24c2.43,1.85,3.78,3.09,5.32,4.01c6.88,4.13,13.85,8.12,20.71,12.29c1.75,1.07,4,2.33,4.62,4.01
		c0.92,2.51,1.46,5.79,0.61,8.19c-1.24,3.46-4.84,4.42-8.26,3.21c-2.46-0.87-4.66-2.55-6.86-4.04
		c-11.18-7.54-22.96-13.75-36.23-16.82c-5.71-1.32-11.16-1.18-16.52,1.43c-8.2,3.99-16.46,7.84-24.39,13.49
		c2.72,0.55,5.42,1.24,8.17,1.62c24.72,3.42,47.84,11.95,70.42,22.17c6.98,3.16,9.13,6.8,7.27,11.27
		c-2.06,4.95-6.26,5.74-13.72,2.32c-19.27-8.83-39.06-16.09-59.97-19.97c-11.17-2.07-22.42-3.4-33.7-0.94
		c-3.14,0.68-6.62,1.47-9.08,3.34c-8.29,6.28-15.58,13.64-22.64,23.02c7.81-1.22,14.34-2.58,20.93-3.22
		c25.64-2.49,50.41,2.14,74.73,9.77c7.37,2.31,14.54,5.25,21.77,8.01c1.93,0.74,3.91,1.6,5.5,2.86c2.93,2.31,3.5,5.57,1.92,8.84
		c-1.58,3.26-4.46,4.86-8.11,3.98c-2.29-0.55-4.43-1.71-6.65-2.58c-26.55-10.32-53.69-17.78-82.54-16.48
		c-12.02,0.54-23.52,3.19-34.31,8.79c-7.97,4.13-14.16,9.67-17.05,18.48c-1.36,4.15-3.22,8.13-5.59,14c2.82-1.09,3.8-1.34,4.64-1.82
		c16.97-9.65,35.47-13.55,54.72-14.45c19.72-0.93,39.26,0.62,58.57,4.86c1.16,0.26,2.37,0.35,3.51,0.68
		c5.62,1.64,7.97,5.01,6.79,9.65c-1.06,4.16-4.23,5.76-9.9,4.95c-11.78-1.67-23.51-3.8-35.34-4.93
		c-19.45-1.87-38.66-0.23-57.28,6.11c-10.6,3.61-19.73,9.47-27.68,17.46c-6.54,6.58-6.65,14.68-7.58,24.07
		c2.27-1.36,3.58-1.93,4.65-2.81c22.18-18.07,48.34-26.34,76-30.91c0.88-0.14,1.78-0.28,2.66-0.26c4.64,0.09,7.7,2.6,8.03,6.68
		c0.34,4.18-1.64,6.96-5.66,7.88c-5.22,1.18-10.54,1.86-15.77,3.01c-15.2,3.36-30.02,8.05-43.11,16.57
		c-7.65,4.98-14.87,10.97-21.18,17.57c-8.44,8.82-8.88,14.05-4.99,27.99c2.79-2.1,5.32-3.94,7.77-5.87
		c27.45-21.7,56.6-40.55,89.28-53.55c23.16-9.21,47.1-15.02,72.11-15.02c39.82,0,74.61,13.31,103.74,40.72
		c3.24,3.05,6.28,6.38,8.97,9.92c3.14,4.14,2.68,8.54-0.59,11.13c-3.41,2.7-6.94,1.95-11.05-1.8c-8.34-7.59-16.78-15.08-25.3-22.47
		c-1.71-1.48-3.96-2.35-6.93-4.06c2.56,8.36,4.93,15.59,6.93,22.91c1.01,3.71,1.71,7.59,1.88,11.42c0.2,4.27-2.35,6.95-6.18,7.39
		c-4.13,0.48-7.03-1.28-8.2-5.24c-0.84-2.83-0.87-5.92-1.8-8.72c-2.52-7.6-4.41-15.61-8.22-22.54
		c-9.47-17.22-16.28-21.63-38.87-22.37c1.38,1.99,2.33,3.73,3.62,5.17c13.81,15.56,23.53,33.57,31.55,52.6
		c0.58,1.37,1.16,2.77,1.45,4.22c0.77,3.82-1.13,7.55-4.51,8.66c-3.45,1.13-6.61,0.4-8.67-2.71c-1.29-1.96-2.05-4.28-3.01-6.46
		c-6.35-14.5-13.42-28.62-23.59-40.85c-4.35-5.23-9.42-9.91-14.54-14.41c-8.82-7.77-18.71-7.35-31.51-2.32
		c2.98,1.82,4.91,2.65,6.41,3.97c18.46,16.4,32.34,36.45,45.25,57.25c0.78,1.25,1.97,2.81,1.75,4c-0.51,2.71-1.1,5.95-2.9,7.73
		c-2.51,2.48-6.23,2.16-8.88-0.44c-1.87-1.84-3.23-4.24-4.65-6.49c-10.34-16.41-21.33-32.36-35.34-45.88
		c-4.88-4.7-10.61-8.56-16.19-12.48c-3.62-2.54-7.77-2.7-11.93-0.95c-5.72,2.4-11.46,4.77-18,7.48c1.91,1.44,2.94,2.47,4.19,3.12
		c24.47,12.81,43.57,31.92,61.56,52.35c1.34,1.52,3.12,3.5,3.07,5.22c-0.08,2.66-0.94,5.83-2.62,7.79
		c-2.08,2.42-5.52,2.31-8.15,0.26c-2.08-1.62-3.8-3.74-5.58-5.73c-12.52-14.03-25.65-27.49-41.33-37.98
		c-7.11-4.75-15.02-8.38-22.79-12.04c-5.43-2.56-10.89-2.07-16.03,1.61c-4.29,3.08-8.9,5.72-15.18,9.71
		c4.84,0.84,7.62,1.38,10.41,1.79c12.47,1.86,24.28,5.81,35.58,11.31c1.59,0.77,3.2,1.68,4.48,2.87c2.76,2.55,3.39,6.16,1.22,8.86
		c-1.58,1.96-4.82,3.24-7.44,3.5c-2.07,0.2-4.38-1.53-6.53-2.53c-15.91-7.47-32.59-11.18-50.2-10.21
		c-11.23,0.62-11.23,0.68-20.7,9.28c1.57,4.91,3.04,9.29,9.39,11.17c81.49,24.18,156.03,62.83,226.62,109.57
		c12.15,8.04,24.09,16.4,35.93,24.47c26.73-21.31,52.66-43.17,79.85-63.33c26.98-20.01,55.24-38.31,82.53-57.08
		c1.6-5.15,2.66-10.64,4.95-15.57c10.94-23.62,23.85-45.99,42.83-64.28c0.53-0.51,0.65-1.46,1.35-3.14
		c-7.21-0.71-13.94-2.03-20.6-1.77c-3.41,0.14-7.54,2.36-9.88,4.96c-4.52,5.04-8.5,10.74-11.81,16.67
		c-8.91,15.93-14.53,33.21-19.56,50.68c-0.66,2.29-1.14,4.63-1.89,6.88c-1.73,5.24-4.78,7.41-9.01,6.59
		c-4.55-0.88-6.37-4.37-5.35-10.45c0.29-1.75,0.82-3.47,1.3-5.19c6.64-23.56,14.53-46.6,28.05-67.29c0.25-0.39,0.03-1.09,0.03-1.66
		c-12.99-2.12-22.26,3.33-29.11,14.1c-8.81,13.83-13.11,29.24-16.08,45.11c-1.26,6.72-1.96,13.54-2.88,20.32
		c-0.47,3.5-1.9,6.3-5.48,7.42c-4.98,1.57-9.85-2.48-9.26-8.65c0.9-9.46,1.94-19.02,4.27-28.2c3.35-13.15,7.92-25.99,12.26-39.9
		c-9.87,3.87-19.68,7.24-25.11,17.6c-5.57,10.62-6.91,22.04-6.78,33.77c0.04,3.57,0.52,7.13,0.73,10.69
		c0.41,7.04-1.44,10.37-6.06,11.07c-4.53,0.69-7.95-2.4-8.53-9.09c-0.71-8.27-0.62-16.6-0.77-24.91c-0.03-1.75,0.43-3.51,0.86-6.73
		c-2.39,1.88-4.19,2.72-5.15,4.14c-5.97,8.86-11.79,17.83-17.57,26.82c-1.12,1.74-1.6,3.9-2.77,5.59c-2.17,3.14-6.39,4.17-9.49,2.4
		c-3.17-1.81-4.78-4.73-3.72-8.27c1.02-3.39,2.52-6.69,4.2-9.82c20.57-38.32,52.26-62.67,94-74.02c28.96-7.88,58.33-7.36,87.72-2.94
		c28.39,4.27,55.61,12.8,82.24,23.34c2.93,1.16,5.91,2.18,9.91,3.65c-1.21-11.31-3.44-20.06-13.11-25.85
		c-15.53-9.3-32.41-13.43-50.14-14.16c-10.06-0.41-20.19,0.68-30.29,1.15c-2.67,0.12-5.34,0.63-8.01,0.6
		c-3.73-0.04-6.12-2.1-6.95-5.74c-0.82-3.6,1.11-7.36,4.99-8.34c4.59-1.16,9.36-1.81,14.09-2.14c25.47-1.77,50.59-0.64,75.82,11.13
		c-2.49-8.71-4.56-15.73-11.57-20.22c-15.02-9.62-31.56-11.86-48.87-9.94c-24.62,2.72-47.33,11.37-69.16,22.65
		c-2.11,1.09-4.11,2.49-6.33,3.27c-4.43,1.56-8.07,0.09-9.79-3.65c-1.82-3.94-0.23-6.87,2.9-9.29c0.47-0.36,0.98-0.68,1.5-0.97
		c28-15.24,57.22-26.7,89.62-27.22c9.13-0.15,18.28,1.23,27.23,1.89c-2.75-8.29-12.6-18.79-20.72-21.64
		c-14.59-5.12-29.29-4.3-43.97-0.52c-27.36,7.04-50.79,21.55-72.82,38.66c-2.11,1.64-4.07,3.58-6.4,4.8
		c-3.14,1.64-6.48,1.42-8.95-1.44c-2.68-3.11-2.6-6.51-0.07-9.75c0.72-0.93,1.62-1.76,2.54-2.5c24.3-19.61,50.4-36.01,80.97-43.97
		c7.15-1.86,14.65-2.4,21.98-3.59c1.63-0.27,3.23-0.74,6.74-1.56c-14.08-7.82-25.16-18.72-41.19-15.23
		c-8.92,1.95-17.77,5.08-26.06,8.93c-19.31,8.96-36.14,21.8-52.25,35.58c-1.81,1.55-3.48,3.29-5.42,4.65
		c-3.92,2.74-7.7,2.37-10.39-0.76c-2.6-3.02-2.4-6.94,0.7-10.47c1.17-1.33,2.59-2.45,3.94-3.62c19.68-17.02,40.54-32.23,64.6-42.62
		c1.05-0.45,1.97-1.19,4.04-2.46c-12.18-3.52-23.53-5.32-35.03-5.28c-3.57,0.01-7.32,2.31-10.66,4.16
		c-11.12,6.14-19.94,14.98-27.97,24.67c-1.52,1.83-2.86,3.83-4.51,5.53c-3.24,3.33-7.22,3.76-10.36,1.32
		c-3.11-2.41-3.9-6.45-1.22-10.36c3.01-4.4,6.53-8.49,10.08-12.5c3.71-4.19,7.72-8.12,12.35-12.94c-2.78-0.17-5-0.67-7.12-0.38
		c-14.73,1.96-29.44,4.07-44.16,6.17c-2.05,0.29-4.08,0.99-6.12,1.04c-3.77,0.11-6.21-2.01-7.11-5.55
		c-0.92-3.63,0.56-6.59,3.85-8.16c2.38-1.14,5.06-1.72,7.67-2.28c26.33-5.67,52.95-8.06,79.86-6.67
		c28.46,1.47,55.98,7.27,82.07,18.91c46.02,20.54,77.72,55.19,97.46,100.98c5.98,13.87,9.89,28.63,14.9,42.93
		c1.07,3.06,0.35,7.67,5.63,7.81c4.1,0.11,7.08-2.47,7.92-8.1c5.24-34.96-5.6-67.19-37.93-86.71c-2.04-1.23-4.29-2.16-6.15-3.61
		c-2.98-2.33-3.73-6.67-1.71-9.63c2.01-2.95,4.88-4.46,8.47-3.1c2.49,0.95,4.94,2.11,7.21,3.49c21.87,13.24,36.49,32.01,43.11,56.84
		c0.38,1.44,0.79,2.87,1.14,4.32c0.35,1.43,0.66,2.86,1.2,5.24c5.62-8.46,7.64-16.7,5.85-25.92c-2.89-14.89-10.36-27.11-21.42-37.27
		c-15.21-13.98-33.28-22.81-52.72-29.15c-2.26-0.74-4.66-1.23-6.72-2.35c-3.16-1.73-4.74-4.61-3.65-8.25c1.04-3.47,3.5-5.5,7.28-5.4
		c1.46,0.04,2.96,0.32,4.37,0.74c21.9,6.59,42.48,15.95,59.42,31.57c8.22,7.58,14.92,16.8,22.87,25.92c0.19-3.04,0.9-6.38,0.52-9.58
		c-1.56-13.15-7.29-24.41-16.38-33.97c-8.56-9.01-18.92-15.4-30.26-20.26c-12.94-5.54-26.43-9.06-40.41-10.72
		c-1.77-0.21-3.61-0.26-5.28-0.79c-3.84-1.23-6.05-3.95-5.5-8.07c0.55-4.09,3.33-6.37,7.37-6.4c3.25-0.03,6.52,0.51,9.74,1.02
		c23.23,3.65,45.21,10.66,64.16,25.1C950.12,139.99,955.42,145.56,961.7,151.27z M597.1,694.18
		c-110.45,158.39-195.16,327.51-244.13,514.51c186.91,0,372.56,0,558.28,0c-3.75-20.67-61.14-140.19-99.11-206.71
		C750.02,893.15,677.8,791.42,597.1,694.18z M336.72,1209.74c6.6-22.77,12.44-43.98,18.89-64.99
		c42.05-136.82,103.47-264.65,180.02-385.34c98.66-155.56,217.32-294.26,353.6-418.03c2.39-2.17,4.71-4.4,6.76-6.32
		c-2.24-5.97-4.21-11.21-6.35-16.9c-3.58,1.35-7.16,2.63-10.69,4.04c-65.65,26.04-126.47,60.82-183.73,101.97
		c-83.39,59.92-156.72,130.68-223.45,208.44c-101.87,118.71-186.71,248.81-258.25,387.74c-7.47,14.51-14.46,29.28-21.78,44.15
		C230.66,1122.34,278.55,1170.37,336.72,1209.74z M927.59,1205.5c1.69-0.78,2.27-0.96,2.76-1.29c1.73-1.15,3.45-2.33,5.15-3.54
		c54.04-38.81,99.29-86.03,135.57-141.82c3.23-4.96,8.32-10.19,8.35-15.32c0.03-5.1-4.97-10.4-8.21-15.32
		c-64.09-97.39-135.09-189.49-212.5-276.65c-52.04-58.6-107.03-114.26-165.89-166.05c-2.56-2.25-5.26-4.35-7.8-6.45
		c-15.17,15.99-72.39,91.47-78.28,103.03C738.58,841.07,849.82,1012.67,927.59,1205.5z M363.5,1224.37
		c-0.22,0.61-0.44,1.21-0.66,1.82c87.74,51.2,182.54,75.45,284.25,72.2c89.26-2.85,172.38-27.15,249.26-72.24
		c-0.12-0.59-0.25-1.19-0.37-1.78C718.48,1224.37,540.99,1224.37,363.5,1224.37z M312.29,382.19
		c68.22,58.64,133.06,121.51,194.96,187.45c24.94-24.6,49.23-48.56,74.03-73.02c-79.19-56.22-162.96-102.81-255.97-130.64
		C320.83,371.56,316.8,376.57,312.29,382.19z M852.53,293.44c-8.19-2.23-14.38-4.35-20.75-5.44c-2.9-0.49-6.76,0.2-9.12,1.86
		c-5.78,4.07-11.45,8.54-16.24,13.7c-13.02,14.05-22.33,30.62-30.63,47.77c-0.39,0.8-0.25,1.86-0.44,3.57
		c12.85-6.84,24.83-13.21,36.89-19.63c-6.04-8.04-6.05-10.54,1.2-16.68c6.32-5.35,13.01-10.32,19.93-14.87
		C838.76,300.19,844.74,297.57,852.53,293.44z M880.64,304.93c-0.31-0.69-0.63-1.38-0.94-2.07c-19.59,2.72-36.88,10.59-51.46,24.55
		C845.71,319.92,863.17,312.43,880.64,304.93z"/>
	<path d="M404.83,1338.72c13.29-9.65,25.27-18.35,37.63-27.32c2.95,1.17,5.9,2.33,9.77,3.86c-2.33,2.02-3.92,3.59-5.7,4.9
		c-11.49,8.47-22.9,17.04-34.59,25.23c-4.6,3.22-7.7,7.08-9.6,12.33c-2,5.52-4.6,10.82-7.19,16.79c-3.55-1.44-6.45-2.61-9.97-4.04
		c2.93-7.11,5.72-13.29,7.98-19.66c1.04-2.94,1.78-6.36,1.38-9.39c-1.9-14.13-4.25-28.19-6.37-41.84
		c-8.14-4.41-15.92-8.63-24.8-13.44c-11.13,18.81-21.32,38.15-32.81,57.92c-3.2-1.75-6.12-3.34-9.63-5.25
		c10.91-19.52,21.46-38.4,32.45-58.08c-7.44-4.38-14.5-8.53-22.18-13.05c1.34-2.7,2.59-5.19,4.11-8.25c3.07,1.56,5.67,2.8,8.2,4.17
		c16.71,9.08,33.3,18.38,50.18,27.12c3.73,1.93,4.21,4.71,4.72,7.82c1.55,9.38,2.86,18.8,4.31,28.2
		C403.25,1330.22,403.94,1333.7,404.83,1338.72z"/>
	<path d="M629.84,230.21c23.11,1.78,46.22,3.56,69.33,5.35c0.59,0.05,1.19,0.08,1.78,0.18c6.26,1.05,9.55,4.45,8.78,9.05
		c-0.77,4.62-4.66,6.71-11.16,5.86c-40.88-5.33-81.82-6.05-122.84-1.74c-6.61,0.7-10.29-1.4-10.94-6.11
		c-0.71-5.16,2.47-8.19,9.72-8.91c7.4-0.73,14.81-1.56,22.23-1.76c11-0.3,22-0.08,33.01-0.08
		C629.79,231.43,629.82,230.82,629.84,230.21z"/>
	<path d="M155.5,1070.95c10.04,15.39,19.58,30.01,29.5,45.21c-2.75,1.88-5.09,3.48-7.96,5.44c-8.02-12.1-15.69-23.67-23.68-35.71
		c-6.4,4.15-12.35,8-19.16,12.41c6.83,10.7,13.47,21.1,20.38,31.93c-2.35,1.73-4.41,3.25-7.51,5.53
		c-7.08-10.72-13.88-21-21.11-31.95c-6.9,4.44-13.28,8.56-20.38,13.13c8.19,12.63,16.03,24.74,24.09,37.17
		c-2.7,1.89-4.82,3.38-7.93,5.55c-10.18-15.56-20.15-30.79-30.56-46.68C112.68,1098.93,133.53,1085.3,155.5,1070.95z"/>
	<path d="M1162.49,929.58c3.79,1.49,6.21,2.45,9.07,3.57c-4.28,13.37-8.42,26.33-12.91,40.36c7.28,2.45,14.13,4.75,21.8,7.32
		c4.11-12.33,8.02-24.04,12.09-36.26c3.16,1.13,5.57,1.98,8.73,3.11c-3.8,12-7.46,23.55-11.42,36.06c7.47,2.48,14.69,4.88,22.86,7.6
		c4.73-14.11,9.32-27.77,14.06-41.91c3.17,0.91,5.63,1.61,9.16,2.62c-5.71,17.62-11.24,34.69-17.15,52.95
		c-24.26-7.85-47.89-15.5-72.62-23.51C1150.71,964,1157,947.54,1162.49,929.58z"/>
	<path d="M561.95,1373.46c-0.65,3.5-1.07,5.77-1.67,9.01c-12.48-1.79-24.64-3.54-37.49-5.38c-1.3,7.99-2.48,15.22-3.87,23.73
		c14.59,2.38,28.77,4.7,43.48,7.1c-0.29,3.09-0.53,5.63-0.89,9.41c-18.31-2.77-36.11-5.45-55.07-8.32
		c3.88-25.36,7.66-50.11,11.59-75.82c18.02,2.75,35.22,5.37,52.97,8.07c-0.31,3.35-0.53,5.86-0.86,9.48
		c-14.22-2.04-27.87-4-42.35-6.08c-1.25,7.58-2.38,14.48-3.7,22.51C536.71,1369.27,548.83,1371.28,561.95,1373.46z"/>
	<path d="M787.64,1317.68c13.2-4.54,24.99-9.58,37.28-12.58c17.95-4.39,32.66,8.55,32.13,26.91c-0.22,7.7-3.59,13.87-9.56,18.27
		c-4.23,3.12-9.15,5.41-13.96,7.64c-5.04,2.34-10.32,4.17-15.98,6.42c2.55,7.23,4.89,13.86,7.49,21.25
		c-3.15,1.36-6.01,2.59-10.01,4.31C805.97,1366,797.09,1342.6,787.64,1317.68z M801.77,1323.07c4.18,10.97,8.08,21.23,12.24,32.16
		c8.57-3.59,16.23-6.09,23.17-9.9c9.43-5.18,11.47-14.74,5.98-23.52c-4.03-6.45-10.79-9.02-19.49-6.54
		C816.86,1317.2,810.3,1319.99,801.77,1323.07z"/>
	<path d="M883.11,1276.08c22.15,16.88,44.02,33.56,66.74,50.89c-3.81,2.24-6.54,3.84-9.85,5.78c-5.42-4.11-10.81-8.2-16.77-12.72
		c-11.66,6.27-23.35,12.56-34.79,18.71c0,7.46,0,14.23,0,21.43c-2.4,1.35-4.94,2.77-7.5,4.21c-2.66-5.65-7-58.27-6.9-83.09
		C876.65,1279.8,879.63,1278.08,883.11,1276.08z M886.96,1329.21c10.13-5.45,18.82-10.12,27.75-14.92
		c-9.4-9.47-24.94-21.04-30.89-23.04C884.83,1303.41,885.83,1315.44,886.96,1329.21z"/>
	<path d="M1132.68,1131.03c2.31,3.47,4.41,6.66,6.55,9.82c5.38,7.97,5.38,7.97-1.42,16.67c-15.45-23.19-30.7-46.08-46.2-69.33
		c1.96-3.17,3.8-6.13,5.87-9.48c27.5,3.68,54.74,7.33,83.05,11.12c-2.17,3.78-3.76,6.53-5.61,9.77c-6.82-0.86-13.52-1.71-20.88-2.65
		C1146.97,1108.21,1139.91,1119.48,1132.68,1131.03z M1106.63,1089.89c-0.33,0.55-0.66,1.1-0.99,1.66
		c6.89,10.1,13.78,20.2,21.42,31.39c6.13-9.85,11.36-18.24,17.14-27.51C1130.59,1093.42,1118.61,1091.65,1106.63,1089.89z"/>
	<path d="M774.97,1327.94c-0.45,3.23-0.8,5.77-1.07,7.73c-5.93,0-11.3-0.6-16.46,0.17c-5.18,0.78-10.4,2.39-15.13,4.64
		c-4.27,2.02-6.42,6.12-5.53,11.18c0.93,5.24,4.64,7.47,9.44,7.95c6.2,0.62,12.45,0.8,18.67,1.23c3.55,0.25,7.2,0.18,10.62,1.02
		c14.56,3.58,19.97,20.32,9.82,31.45c-3.45,3.79-8.38,6.83-13.22,8.63c-12,4.46-24.27,5.18-36.82-0.61
		c0.55-2.81,1.05-5.34,1.62-8.26c1.45,0.1,2.64-0.05,3.67,0.29c8.43,2.79,16.91,3.02,25.45,0.61c1.43-0.4,2.87-0.82,4.23-1.42
		c6.67-2.92,10.05-7.63,9.22-12.7c-0.83-5-4.23-7.64-12.05-8.5c-5.6-0.61-11.27-0.57-16.91-0.85c-2.08-0.1-4.17-0.18-6.23-0.44
		c-9.83-1.22-15.75-5.8-17.85-13.7c-2.44-9.2,0.57-18,8.99-23.29C747.3,1325.64,760.19,1323.65,774.97,1327.94z"/>
	<path d="M329.01,1261.31c-3.04,1.89-5.2,3.24-7.08,4.42c-4.11-4.98-7.3-10.21-11.78-13.87c-4.21-3.44-9.53-6.1-14.79-7.54
		c-6.91-1.89-15.11,6.03-10.45,14.23c2.33,4.1,5.45,7.75,8.26,11.57c3.34,4.54,7,8.87,10.02,13.61c4.01,6.31,4.13,12.87-0.21,19.25
		c-4.61,6.77-11.04,9.74-19.12,8.93c-15.38-1.53-31.74-16.27-35.76-32.45c2.11-1.25,4.34-2.57,6.97-4.13
		c1.55,2.96,2.83,5.56,4.23,8.09c4.65,8.36,11.39,14.46,20.29,17.95c5.29,2.08,10.15,0.92,13.11-2.52
		c3.16-3.68,3.29-7.52-0.25-13.12c-2.21-3.5-5.11-6.55-7.59-9.88c-3.36-4.52-6.97-8.91-9.83-13.74c-8.35-14.11,5.7-28.45,16.85-27.9
		c2.65,0.13,5.43,0.19,7.9,1.01C312.82,1239.53,322.23,1248,329.01,1261.31z"/>
	<path d="M1115.4,1158.68c2.85-0.43,5.4-0.82,7.85-1.19c5.6,16.49-10.16,39.61-29.68,44.32c-22.18,5.35-44.68-9.72-48.25-32.32
		c-3.41-21.61,14.46-44.58,36.78-46.11c0.33,2.67,0.68,5.39,0.99,7.92c-21.68,9.04-30.66,21.81-27.07,37.8
		c3.08,13.75,17.08,24.18,31.01,23.13C1102.83,1191.04,1113.55,1178.76,1115.4,1158.68z"/>
	<path d="M1132.72,1036.06c8.4,3.86,15.85,7.28,23.76,10.91c5.51-11.68,10.69-22.65,16.21-34.34c2.91,1.31,5.43,2.45,8.64,3.89
		c-5.32,11.65-10.35,22.65-15.8,34.59c9.2,4.36,17.94,8.5,27.72,13.14c-1.53,3.33-2.92,6.35-4.63,10.06
		c-23.27-10.77-45.87-21.22-69.58-32.19c7.65-16.53,15.07-32.56,22.67-48.97c3.06,1.3,5.44,2.31,8.89,3.77
		C1144.7,1009.85,1138.96,1022.41,1132.72,1036.06z"/>
	<path d="M148.88,1061.02c-3.13,1.61-5.44,2.8-8.56,4.41c-6.44-12.77-12.69-25.15-19.31-38.27c-7.85,3.85-15.21,7.46-23.38,11.47
		c5.54,11.45,10.81,22.33,16.46,34.01c-2.61,1.52-5,2.9-8.21,4.77c-5.84-11.66-11.36-22.69-17.16-34.27
		c-9.36,4.52-18.09,8.73-27.47,13.26c-1.75-3.3-3.2-6.06-5.16-9.76c22.95-11.36,45.48-22.51,68.76-34.03
		C132.88,1028.78,140.64,1044.42,148.88,1061.02z"/>
	<path d="M450.82,1384.17c13.42,3.92,26.12,7.64,39.36,11.51c-0.76,3.02-1.38,5.47-2.33,9.22c-16.8-4.73-33.16-9.33-50.52-14.21
		c7.03-24.9,13.83-49.01,20.73-73.46c2.55,0.5,4.27,0.72,5.92,1.2c1.38,0.4,2.68,1.1,4.71,1.97
		C462.83,1341.33,457.01,1362.08,450.82,1384.17z"/>
	<path d="M33.04,953.59c3.96,13.47,7.54,25.7,11.42,38.91c-2.85,1.07-5.42,2.02-9.01,3.37c-5.12-17.08-10.01-33.39-15.11-50.39
		c24.53-7.34,48.34-14.47,73.05-21.86c1.19,3.21,2.28,6.13,3.73,10.04C76.11,941.28,54.57,946.29,33.04,953.59z"/>
	<path d="M46.07,1021.59c-1.51-3.63-2.64-6.33-4.27-10.27c23.58-9.26,46.89-18.4,71.11-27.91c1.51,3.49,2.83,6.57,4.44,10.3
		C93.35,1003.1,70.17,1012.16,46.07,1021.59z"/>
	<path d="M207.68,1191.59c5.82-0.05,10.71,4.76,10.76,10.6c0.05,5.9-4.65,10.66-10.59,10.7c-5.94,0.04-10.65-4.6-10.7-10.55
		C197.09,1196.4,201.75,1191.65,207.68,1191.59z"/>
	<path d="M648.83,1393.32c-5.88-0.63-10.25-6.16-9.45-11.94c0.77-5.58,5.72-9.65,11.28-9.29c6.01,0.4,10.24,5.4,9.78,11.57
		C659.98,1389.76,654.91,1393.97,648.83,1393.32z"/>
	<path d="M987.34,1249.79c0.52-5.58,5.41-9.88,10.92-9.61c5.82,0.29,10.62,5.62,10.24,11.38c-0.39,5.96-5.47,10.3-11.55,9.86
		C990.87,1260.97,986.76,1256,987.34,1249.79z"/>
	<path d="M673.96,1090.67c-1.57,2.38-3.23,4.71-4.69,7.16c-8.39,14.04-16.67,28.13-25.1,42.15c-4.43,7.36-8.45,7.41-12.85,0.14
		c-8.47-13.99-16.8-28.06-25.22-42.08c-1.47-2.45-3.13-4.78-6.16-6.82c0,21.49,0,42.98,0,65.18c-4.55,0-8.24,0-12.02,0
		c-1.85-5.98-2.5-79.66-0.76-94.58c10.25-2.13,10.26-2.14,15.36,6.43c10.03,16.87,20.03,33.75,30.06,50.62
		c1.51,2.54,3.11,5.02,5.12,8.25c1.66-2.3,3.12-4.02,4.24-5.93c10.41-17.68,21.08-35.21,30.96-53.18c3.68-6.68,8.02-8.84,15.6-6.47
		c0,31.43,0,63.06,0,95.14c-4.02,0-7.51,0-12.18,0c-1.12-6.99-0.35-14.35-0.5-21.63c-0.14-7.14-0.03-14.28-0.03-21.42
		c0-7.4,0-14.8,0-22.2C675.18,1091.18,674.57,1090.93,673.96,1090.67z"/>
	<path d="M762.43,1158c-19.29,0.02-34.95-7.21-44.94-24.08c-16.48-27.83-2.61-66.85,34.17-73.64c38.45-7.1,68.89,23.38,60.33,60.79
		C806.92,1143.29,787.29,1157.9,762.43,1158z M799.38,1109.22c0.13-21.33-15.69-37.3-37.05-37.4c-21.27-0.1-37.64,15.95-37.69,36.94
		c-0.05,21.02,16.21,36.92,37.67,36.85C783.41,1145.55,799.25,1129.99,799.38,1109.22z"/>
	<path d="M572.92,1156.75c-5.36,0-9.42,0-14.59,0c-2.55-5.71-5.52-11.79-7.99-18.06c-1.63-4.14-3.98-5.93-8.62-5.83
		c-13.08,0.28-26.17,0.22-39.25,0.03c-4.14-0.06-6.59,1.23-8.14,5.21c-2.47,6.32-5.44,12.45-8.23,18.73c-4.61,0-8.73,0-14.31,0
		c14.58-32.26,28.83-63.79,43.23-95.65c4.63,0,8.98,0,14.49,0C543.71,1092.42,558.13,1124.18,572.92,1156.75z M542.55,1121.27
		c-6.68-15.17-13.03-29.61-19.38-44.05c-0.64-0.01-1.28-0.01-1.91-0.02c-6.34,14.38-12.67,28.77-19.41,44.06
		C515.96,1121.27,528.57,1121.27,542.55,1121.27z"/>
</g>
</svg>
